<svg width="40" height="40" viewBox="0 0 40 40" fill="none" xmlns="http://www.w3.org/2000/svg">
<path d="M34.935 19.6406C35.5513 18.9281 36.25 18.1197 36.25 17.0835C36.25 16.0472 35.5513 15.2393 34.9354 14.5268C34.5654 14.0993 34.1833 13.6572 34.09 13.3077C33.9888 12.9281 34.1008 12.3347 34.2092 11.7606C34.3808 10.8518 34.5758 9.82225 34.0746 8.956C33.5667 8.0785 32.5688 7.73141 31.6879 7.42475C31.1433 7.23558 30.5804 7.03933 30.3121 6.77183C30.0442 6.5035 29.8483 5.94058 29.6592 5.396C29.3529 4.51516 29.0058 3.51725 28.1275 3.00891C27.2612 2.50766 26.2308 2.70266 25.3229 2.87433C24.7488 2.98266 24.155 3.09433 23.7758 2.99308C23.4263 2.89975 22.9846 2.51766 22.5571 2.1485C21.8446 1.53225 21.0362 0.833496 20 0.833496C18.9637 0.833496 18.1558 1.53225 17.4433 2.14808C17.0158 2.51808 16.5737 2.90016 16.2242 2.9935C15.8442 3.09308 15.2512 2.98308 14.6771 2.87433C13.7687 2.70183 12.7387 2.50766 11.8725 3.00891C10.995 3.51683 10.6479 4.51475 10.3412 5.39558C10.1521 5.94016 9.95583 6.50308 9.68833 6.77141C9.42 7.03933 8.85708 7.23516 8.3125 7.42433C7.43167 7.73058 6.43375 8.07766 5.92542 8.956C5.42458 9.82183 5.61917 10.8522 5.79083 11.7606C5.89958 12.3347 6.01125 12.9281 5.90958 13.3077C5.81625 13.6572 5.43417 14.0989 5.065 14.5264C4.44875 15.2389 3.75 16.0472 3.75 17.0835C3.75 18.1197 4.44875 18.9277 5.06458 19.6402C5.43458 20.0677 5.81667 20.5097 5.91 20.8593C6.01125 21.2389 5.89917 21.8322 5.79083 22.4064C5.61917 23.3152 5.42417 24.3447 5.92542 25.211C6.43333 26.0885 7.43125 26.4356 8.31208 26.7422C8.85667 26.9314 9.41958 27.1277 9.68792 27.3952C9.72042 27.4277 9.75167 27.4647 9.78208 27.5056L6.70542 37.2493C6.62583 37.5027 6.67083 37.7789 6.82792 37.9931C6.985 38.2068 7.23417 38.3335 7.5 38.3335H15C15.3633 38.3335 15.6854 38.0981 15.7946 37.7514L17.5704 32.1281C18.2521 32.7147 19.0246 33.3335 20 33.3335C20.9758 33.3335 21.7479 32.7143 22.4296 32.1277L24.2054 37.751C24.3146 38.0981 24.6362 38.3335 25 38.3335H32.5C32.7658 38.3335 33.015 38.2068 33.1721 37.9931C33.3292 37.7785 33.3742 37.5027 33.2946 37.2493L30.2179 27.5056C30.2483 27.4652 30.2796 27.4281 30.3117 27.3956C30.58 27.1277 31.1429 26.9318 31.6875 26.7427C32.5683 26.4364 33.5662 26.0893 34.0746 25.211C34.5754 24.3452 34.3808 23.3147 34.2092 22.4064C34.1004 21.8322 33.9888 21.2389 34.0904 20.8593C34.1833 20.5097 34.5654 20.0677 34.935 19.6406ZM14.3892 36.6668H8.63708L10.78 29.881C11.0283 30.3931 11.3583 30.8602 11.8725 31.1581C12.7387 31.6593 13.7692 31.4639 14.6771 31.2927C15.2079 31.1922 15.7475 31.0964 16.1275 31.1618L14.3892 36.6668ZM25.6108 36.6668L23.8725 31.1614C24.2521 31.0968 24.7917 31.1918 25.3229 31.2922C26.2313 31.4643 27.2612 31.6589 28.1275 31.1577C28.6421 30.8602 28.9717 30.3927 29.22 29.8802L31.3629 36.6668H25.6108ZM33.6742 18.5506C33.1812 19.1202 32.6721 19.7093 32.48 20.4289C32.2804 21.1752 32.4283 21.9585 32.5712 22.7156C32.695 23.3697 32.8229 24.0464 32.6317 24.3764C32.4338 24.7181 31.7762 24.9472 31.1404 25.1681C30.4183 25.4193 29.6717 25.6789 29.1337 26.2172C28.5954 26.7552 28.3358 27.5018 28.0846 28.2239C27.8633 28.8597 27.6346 29.5172 27.2929 29.7152C26.9629 29.906 26.2862 29.7785 25.6329 29.6547C24.8746 29.511 24.0917 29.3635 23.3458 29.5627C22.6258 29.7552 22.0367 30.2647 21.4671 30.7577C20.9496 31.2052 20.4158 31.6668 20 31.6668C19.5842 31.6668 19.05 31.2047 18.5329 30.7577C17.9633 30.2647 17.3742 29.7556 16.6546 29.5635C16.3942 29.4935 16.1292 29.4664 15.8629 29.4664C15.3654 29.4664 14.8613 29.5618 14.3679 29.6547C13.7129 29.7785 13.0367 29.906 12.7071 29.7152C12.3654 29.5172 12.1362 28.8597 11.9154 28.2239C11.6642 27.5018 11.4046 26.7552 10.8663 26.2172C10.3283 25.6789 9.58167 25.4193 8.85958 25.1681C8.22375 24.9468 7.56625 24.7181 7.36833 24.3764C7.17708 24.0464 7.30542 23.3702 7.42875 22.7164C7.57208 21.9589 7.72 21.1756 7.52083 20.4293C7.32833 19.7093 6.81875 19.1202 6.32583 18.5506C5.87833 18.0331 5.41667 17.4993 5.41667 17.0835C5.41667 16.6677 5.87875 16.1335 6.32583 15.6164C6.81875 15.0468 7.32792 14.4577 7.52 13.7381C7.71958 12.9918 7.57167 12.2085 7.42875 11.4514C7.305 10.7972 7.17708 10.1206 7.36833 9.79058C7.56625 9.44891 8.22375 9.21975 8.85958 8.99891C9.58167 8.74766 10.3283 8.48808 10.8663 7.94975C11.4046 7.41183 11.6642 6.66516 11.9154 5.94308C12.1367 5.30725 12.3654 4.64975 12.7071 4.45183C13.0363 4.26058 13.7133 4.3885 14.3671 4.51225C15.125 4.656 15.9083 4.8035 16.6542 4.60433C17.3742 4.41183 17.9633 3.90225 18.5329 3.40933C19.0504 2.96183 19.5842 2.50016 20 2.50016C20.4158 2.50016 20.95 2.96225 21.4671 3.40933C22.0367 3.90225 22.6258 4.41141 23.3454 4.6035C24.0921 4.8035 24.875 4.65558 25.6321 4.51225C26.2862 4.38808 26.9629 4.26058 27.2929 4.45183C27.6346 4.64975 27.8637 5.30725 28.0846 5.94308C28.3358 6.66516 28.5954 7.41183 29.1337 7.94975C29.6717 8.48808 30.4183 8.74766 31.1404 8.99891C31.7762 9.22016 32.4338 9.44891 32.6317 9.79058C32.8229 10.1206 32.6946 10.7968 32.5712 11.4506C32.4279 12.2081 32.28 12.9914 32.4792 13.7377C32.6717 14.4577 33.1812 15.0468 33.6742 15.6164C34.1217 16.1339 34.5833 16.6677 34.5833 17.0835C34.5833 17.4993 34.1213 18.0335 33.6742 18.5506ZM20 6.66683C14.2562 6.66683 9.58333 11.3397 9.58333 17.0835C9.58333 22.8272 14.2562 27.5002 20 27.5002C25.7437 27.5002 30.4167 22.8272 30.4167 17.0835C30.4167 11.3397 25.7437 6.66683 20 6.66683ZM20 25.8335C15.1754 25.8335 11.25 21.9081 11.25 17.0835C11.25 12.2589 15.1754 8.3335 20 8.3335C24.8246 8.3335 28.75 12.2589 28.75 17.0835C28.75 21.9081 24.8246 25.8335 20 25.8335ZM25.1258 14.6622L22.1108 14.2022L20.7546 11.3127C20.6171 11.0202 20.3229 10.8335 20 10.8335C19.6771 10.8335 19.3829 11.0202 19.2454 11.3127L17.8892 14.2022L14.8742 14.6622C14.5654 14.7093 14.3092 14.9256 14.2096 15.2218C14.11 15.5181 14.185 15.8447 14.4033 16.0681L16.5854 18.3047L15.8542 21.4793C15.7812 21.7956 15.8983 22.1247 16.1542 22.3239C16.41 22.5235 16.7579 22.5556 17.0467 22.4081L20 20.8947L22.9533 22.4085C23.0733 22.4702 23.2033 22.5002 23.3333 22.5002C23.5154 22.5002 23.6962 22.4406 23.8454 22.3243C24.1008 22.1247 24.2183 21.7956 24.1454 21.4797L23.4142 18.3052L25.5962 16.0685C25.8142 15.8452 25.8892 15.5185 25.79 15.2222C25.6908 14.926 25.4346 14.7097 25.1258 14.6622ZM21.9033 17.4668C21.705 17.6697 21.6242 17.9597 21.6875 18.236L22.1187 20.1085L20.3796 19.2168C20.2604 19.156 20.1296 19.1252 19.9996 19.1252C19.8692 19.1252 19.7388 19.1556 19.6196 19.2168L17.8804 20.1085L18.3117 18.236C18.375 17.9597 18.2942 17.6702 18.0958 17.4668L16.7283 16.0656L18.58 15.7827C18.8546 15.7402 19.0908 15.5643 19.2088 15.3127L20 13.6281L20.7904 15.3127C20.9083 15.5643 21.1446 15.7402 21.4192 15.7827L23.2708 16.0656L21.9033 17.4668Z" fill="#0011BB"/>
</svg>
