<svg width="14" height="13" viewBox="0 0 14 13" fill="none" xmlns="http://www.w3.org/2000/svg">
<mask id="mask0_1_46" style="mask-type:luminance" maskUnits="userSpaceOnUse" x="0" y="0" width="14" height="13">
<path d="M13.7891 0H0.789062V13H13.7891V0Z" fill="white"/>
</mask>
<g mask="url(#mask0_1_46)">
<path d="M10.2701 0H4.30804C2.36764 0 0.789062 1.57858 0.789062 3.51898V9.4811C0.789062 11.4214 2.36764 13 4.30804 13H10.2702C12.2105 13 13.789 11.4214 13.789 9.4811V3.51898C13.789 1.57858 12.2105 0 10.2701 0ZM13.0269 9.4811C13.0269 11.0012 11.7902 12.2379 10.2701 12.2379H4.30804C2.78788 12.2379 1.55118 11.0012 1.55118 9.4811V3.51898C1.55118 1.99881 2.78788 0.762114 4.30804 0.762114H10.2702C11.7902 0.762114 13.0269 1.99881 13.0269 3.51898V9.4811Z" fill="#17254E"/>
<path d="M7.28895 2.94531C5.32891 2.94531 3.73438 4.53986 3.73438 6.49989C3.73438 8.45993 5.32891 10.0545 7.28895 10.0545C9.24898 10.0545 10.8435 8.45993 10.8435 6.49989C10.8435 4.53986 9.24898 2.94531 7.28895 2.94531ZM7.28895 9.29236C5.74925 9.29236 4.49648 8.03969 4.49648 6.49989C4.49648 4.96019 5.74925 3.70743 7.28895 3.70743C8.82875 3.70743 10.0814 4.96019 10.0814 6.49989C10.0814 8.03969 8.82875 9.29236 7.28895 9.29236Z" fill="#17254E"/>
<path d="M10.9288 1.68262C10.3495 1.68262 9.87842 2.15383 9.87842 2.73295C9.87842 3.31218 10.3495 3.78339 10.9288 3.78339C11.508 3.78339 11.9792 3.31218 11.9792 2.73295C11.9792 2.15373 11.508 1.68262 10.9288 1.68262ZM10.9288 3.02118C10.7699 3.02118 10.6405 2.89184 10.6405 2.73295C10.6405 2.57397 10.7699 2.44473 10.9288 2.44473C11.0877 2.44473 11.2171 2.57397 11.2171 2.73295C11.2171 2.89184 11.0877 3.02118 10.9288 3.02118Z" fill="#17254E"/>
</g>
</svg>
