<svg width="14" height="13" viewBox="0 0 14 13" fill="none" xmlns="http://www.w3.org/2000/svg">
<path d="M2.57381 0C2.08907 0 1.64838 0.17628 1.31788 0.506788C0.965343 0.859321 0.789062 1.29998 0.789062 1.76269C0.789062 2.24743 0.987368 2.68812 1.31788 3.01862C1.64838 3.34913 2.1111 3.54744 2.55178 3.52541C2.55178 3.52541 2.57381 3.52541 2.59586 3.52541C3.03654 3.52541 3.45518 3.34913 3.78569 3.01862C4.1162 2.68812 4.3145 2.24743 4.3145 1.76269C4.33653 1.29998 4.13822 0.859296 3.80771 0.528787C3.4772 0.176254 3.03652 0 2.57381 0ZM3.47721 2.71017C3.23482 2.95255 2.90432 3.10678 2.55178 3.08475C2.22127 3.08475 1.86874 2.95255 1.62636 2.71017C1.36195 2.46779 1.22975 2.11525 1.22975 1.76272C1.22975 1.41019 1.36195 1.07968 1.62636 0.815271C1.86874 0.57289 2.19925 0.440686 2.57381 0.440686C2.90432 0.440686 3.23482 0.57289 3.47721 0.815271C3.74161 1.07968 3.87381 1.41019 3.87381 1.76272C3.87381 2.11525 3.74161 2.46779 3.47721 2.71017Z" fill="#17254E"/>
<path d="M3.4335 3.96582H1.64876C1.29622 3.96582 1.00977 4.25225 1.00977 4.62684V12.3387C1.00977 12.6912 1.31825 12.9997 1.67078 12.9997H3.4335C3.78604 12.9997 4.09452 12.6912 4.09452 12.3607V4.62684C4.09452 4.27428 3.78604 3.96582 3.4335 3.96582ZM3.65383 12.3607C3.65383 12.4709 3.54365 12.559 3.4335 12.559H1.67078C1.5606 12.559 1.45045 12.4489 1.45045 12.3387V4.62684C1.45045 4.51666 1.53858 4.40651 1.64876 4.40651H3.4335C3.54368 4.40651 3.65383 4.51668 3.65383 4.62684V12.3607Z" fill="#17254E"/>
<path d="M10.9247 3.74609H10.462C9.60264 3.74609 8.78739 4.12068 8.25858 4.71559V4.40711C8.25858 4.18678 8.03825 3.96642 7.81789 3.96642H5.61451C5.41621 3.96642 5.17383 4.1427 5.17383 4.38506V12.6037C5.17383 12.8461 5.41621 13.0003 5.61451 13.0003H8.03825C8.23656 13.0003 8.47894 12.8461 8.47894 12.6037V7.84437C8.47894 7.11725 9.00775 6.54436 9.69079 6.54436C10.0433 6.54436 10.3738 6.67657 10.6162 6.91895C10.8365 7.11725 10.9247 7.42574 10.9247 7.82235V12.5596C10.9247 12.78 11.145 13.0003 11.3654 13.0003H13.5688C13.7891 13.0003 14.0094 12.78 14.0094 12.5596V6.8749C14.0094 5.1122 12.6654 3.74609 10.9247 3.74609ZM13.5687 12.5376L13.5467 12.5596H11.3874L11.3654 7.82237C11.3654 7.29356 11.2332 6.89695 10.9467 6.61052C10.6162 6.28001 10.1755 6.10373 9.71282 6.10373C8.78739 6.12575 8.06028 6.87492 8.06028 7.8444V12.5596H5.63654V4.40711H7.81789L7.83992 4.42914V5.81727L8.43483 5.22236L8.45686 5.20033C8.89755 4.58339 9.66872 4.18678 10.484 4.18678H10.9467C12.423 4.18678 13.5687 5.37661 13.5687 6.87492V12.5376Z" fill="#17254E"/>
</svg>
