<svg width="42" height="41" viewBox="0 0 42 41" fill="none" xmlns="http://www.w3.org/2000/svg">
<path d="M39.5688 31.3843H2.06936C0.997677 31.3843 0.132812 30.5195 0.132812 29.4478V2.76858C0.132812 1.7063 1.00708 0.832031 2.06936 0.832031H39.5688C40.6404 0.832031 41.5053 1.6969 41.5053 2.76858V29.4478C41.5053 30.5195 40.6404 31.3843 39.5688 31.3843ZM2.06936 1.7721C1.52412 1.7721 1.07288 2.22334 1.07288 2.76858V29.4478C1.07288 30.0024 1.52412 30.4443 2.06936 30.4443H39.5688C40.1234 30.4443 40.5652 29.993 40.5652 29.4478V2.76858C40.5652 2.22334 40.114 1.7721 39.5688 1.7721H2.06936Z" fill="#D16900"/>
<path d="M38.516 28.8651H3.12238C2.85916 28.8651 2.65234 28.6583 2.65234 28.395V3.8216C2.65234 3.55838 2.85916 3.35156 3.12238 3.35156H38.5066C38.7699 3.35156 38.9767 3.55838 38.9767 3.8216V28.395C38.9861 28.6583 38.7699 28.8651 38.516 28.8651ZM3.59241 27.925H38.0366V4.29163H3.59241V27.925Z" fill="#D16900"/>
<path d="M15.5688 38.1246C15.4466 38.1246 15.315 38.0776 15.221 37.9742C15.0424 37.7862 15.0518 37.4854 15.2492 37.3068C18.2668 34.5053 17.0165 31.2245 16.9601 31.0835C16.8661 30.8391 16.9789 30.5665 17.2234 30.4724C17.4678 30.3784 17.7404 30.4912 17.8344 30.7357C17.8532 30.7733 18.2386 31.7603 18.1916 33.1422C18.1446 34.4207 17.7122 36.2915 15.8885 37.993C15.7945 38.087 15.6816 38.1246 15.5688 38.1246Z" fill="#D16900"/>
<path d="M26.0701 38.125C25.9573 38.125 25.8445 38.0874 25.7505 38.0028C23.9268 36.3106 23.4943 34.4305 23.4473 33.152C23.4003 31.7701 23.7858 30.783 23.8046 30.7454C23.8986 30.501 24.1712 30.3882 24.4156 30.4822C24.66 30.5762 24.7728 30.8488 24.6788 31.0933C24.6224 31.2343 23.3815 34.5151 26.3898 37.3165C26.5778 37.4951 26.5872 37.7866 26.418 37.984C26.3239 38.078 26.2017 38.125 26.0701 38.125Z" fill="#D16900"/>
<path d="M30.2533 40.8311H11.3861C11.1228 40.8311 10.916 40.6243 10.916 40.361V39.0073C10.916 38.0015 11.7339 37.1836 12.7398 37.1836H28.8996C29.9054 37.1836 30.7233 38.0015 30.7233 39.0073V40.361C30.7233 40.6149 30.5165 40.8311 30.2533 40.8311ZM11.8561 39.891H29.7832V39.0073C29.7832 38.5185 29.3884 38.1237 28.8996 38.1237H12.7398C12.2509 38.1237 11.8561 38.5185 11.8561 39.0073V39.891Z" fill="#D16900"/>
<path d="M12.2696 22.7263C12.185 22.7263 12.1004 22.7075 12.0252 22.6605L6.61038 19.4173C6.46937 19.3327 6.38477 19.1823 6.38477 19.0131V12.8744C6.38477 12.7052 6.47877 12.5454 6.61978 12.4608C6.76079 12.3762 6.94881 12.3762 7.08982 12.4702L12.5046 15.7134C12.6456 15.798 12.7302 15.9484 12.7302 16.1176V22.2563C12.7302 22.4255 12.6362 22.5853 12.4952 22.6699C12.4294 22.7075 12.3448 22.7263 12.2696 22.7263ZM7.32484 18.7498L11.7996 21.429V16.3809L7.32484 13.7017V18.7498Z" fill="#D16900"/>
<path d="M12.2689 22.7271C12.1843 22.7271 12.1091 22.7083 12.0338 22.6707C11.8834 22.5861 11.7988 22.4357 11.7988 22.2571V16.1184C11.7988 15.9492 11.8834 15.7988 12.0244 15.7142L17.4393 12.4709C17.5803 12.3863 17.7683 12.3863 17.9093 12.4615C18.0597 12.5461 18.1443 12.7059 18.1443 12.8752V19.0138C18.1443 19.183 18.0597 19.3334 17.9187 19.4181L12.5039 22.6613C12.4381 22.7083 12.3535 22.7271 12.2689 22.7271ZM12.7389 16.3816V21.4298L17.2136 18.7506V13.7024L12.7389 16.3816Z" fill="#D16900"/>
<path d="M6.85439 13.3445C6.68517 13.3445 6.52536 13.2599 6.44076 13.1001C6.31855 12.8745 6.40315 12.5831 6.62877 12.4609L12.0436 9.54664C12.1846 9.47143 12.3538 9.47143 12.4854 9.54664L17.9002 12.4609C18.1258 12.5831 18.2104 12.8651 18.0882 13.1001C17.966 13.3351 17.684 13.4103 17.449 13.2881L12.2598 10.4961L7.0706 13.2881C7.0048 13.3257 6.92959 13.3445 6.85439 13.3445Z" fill="#D16900"/>
<path d="M16.3305 8.13734H8.20832C7.9451 8.13734 7.73828 7.93052 7.73828 7.6673C7.73828 7.40408 7.9451 7.19727 8.20832 7.19727H16.3305C16.5937 7.19727 16.8006 7.40408 16.8006 7.6673C16.8006 7.93052 16.5937 8.13734 16.3305 8.13734Z" fill="#D16900"/>
<path d="M14.9669 9.49993C14.8447 9.49993 14.7225 9.45293 14.6379 9.35892C14.4593 9.18031 14.4593 8.87949 14.6379 8.69147L15.6719 7.65739L14.6379 6.62332C14.4593 6.4447 14.4593 6.14388 14.6379 5.95587C14.8165 5.76785 15.1173 5.77725 15.3053 5.95587L16.659 7.33777C16.8376 7.51638 16.8376 7.81721 16.659 8.00522L15.2959 9.36832C15.2019 9.45293 15.0891 9.49993 14.9669 9.49993Z" fill="#D16900"/>
<path d="M9.57218 9.50066C9.44997 9.50066 9.32776 9.45365 9.24316 9.35965L7.88005 7.99654C7.70144 7.81793 7.70144 7.51711 7.88005 7.32909L9.24316 5.96599C9.42177 5.78738 9.72259 5.78738 9.91061 5.96599C10.0892 6.1446 10.0892 6.44543 9.91061 6.63344L8.87653 7.66752L9.91061 8.7016C10.0892 8.88021 10.0892 9.18103 9.91061 9.36905C9.8166 9.45365 9.69439 9.50066 9.57218 9.50066Z" fill="#D16900"/>
<path d="M16.3305 25.0299H8.20832C7.9451 25.0299 7.73828 24.8231 7.73828 24.5599C7.73828 24.2967 7.9451 24.0898 8.20832 24.0898H16.3305C16.5937 24.0898 16.8006 24.2967 16.8006 24.5599C16.8006 24.8231 16.5937 25.0299 16.3305 25.0299Z" fill="#D16900"/>
<path d="M14.9669 26.3921C14.8447 26.3921 14.7225 26.3451 14.6379 26.2511C14.4593 26.0631 14.4593 25.7717 14.6379 25.5836L15.6719 24.5496L14.6379 23.5155C14.4593 23.3275 14.4593 23.0361 14.6379 22.848C14.8165 22.66 15.1173 22.66 15.3053 22.848L16.6684 24.2111C16.847 24.3992 16.847 24.6906 16.6684 24.8786L15.3053 26.2417C15.2019 26.3451 15.0891 26.3921 14.9669 26.3921Z" fill="#D16900"/>
<path d="M9.57218 26.3925C9.44997 26.3925 9.32776 26.3455 9.24316 26.2515L7.88005 24.8884C7.70144 24.7003 7.70144 24.4089 7.88005 24.2209L9.24316 22.8578C9.42177 22.6698 9.72259 22.6698 9.91061 22.8578C10.0892 23.0458 10.0892 23.3372 9.91061 23.5253L8.87653 24.5593L9.91061 25.5934C10.0892 25.7814 10.0892 26.0728 9.91061 26.2609C9.8166 26.3455 9.69439 26.3925 9.57218 26.3925Z" fill="#D16900"/>
<path d="M23.0507 26.392H21.4808C20.7945 26.392 20.2305 25.8374 20.2305 25.1511V10.345C20.2305 10.0818 20.4373 9.875 20.7005 9.875H23.8215C24.0848 9.875 24.2916 10.0818 24.2916 10.345V25.1417C24.301 25.828 23.7369 26.392 23.0507 26.392ZM21.1799 10.8151V25.1417C21.1799 25.311 21.321 25.4426 21.4902 25.4426H23.0507C23.2199 25.4426 23.3515 25.3016 23.3515 25.1417V10.8151H21.1799Z" fill="#D16900"/>
<path d="M23.8309 10.8164C23.6429 10.8164 23.4643 10.7035 23.3891 10.5155L22.2704 7.61072L21.1517 10.5155C21.0577 10.76 20.7851 10.8822 20.5406 10.7882C20.2962 10.6941 20.174 10.4215 20.268 10.1771L21.8285 6.13481C21.8943 5.95619 22.073 5.83398 22.2704 5.83398C22.4678 5.83398 22.637 5.95619 22.7122 6.13481L24.2727 10.1771C24.3667 10.4215 24.2445 10.6941 24.0001 10.7882C23.9437 10.807 23.8873 10.8164 23.8309 10.8164Z" fill="#D16900"/>
<path d="M23.8313 23.6198H20.7103C20.447 23.6198 20.2402 23.4129 20.2402 23.1497C20.2402 22.8865 20.447 22.6797 20.7103 22.6797H23.8313C24.0945 22.6797 24.3013 22.8865 24.3013 23.1497C24.3013 23.4129 24.0851 23.6198 23.8313 23.6198Z" fill="#D16900"/>
<path d="M34.7841 8.00452H26.6243C26.3611 8.00452 26.1543 7.79771 26.1543 7.53449C26.1543 7.27127 26.3611 7.06445 26.6243 7.06445H34.7841C35.0474 7.06445 35.2542 7.27127 35.2542 7.53449C35.2542 7.79771 35.0474 8.00452 34.7841 8.00452Z" fill="#D16900"/>
<path d="M34.7841 10.8619H26.6243C26.3611 10.8619 26.1543 10.6551 26.1543 10.3919C26.1543 10.1287 26.3611 9.92188 26.6243 9.92188H34.7841C35.0474 9.92188 35.2542 10.1287 35.2542 10.3919C35.2542 10.6551 35.0474 10.8619 34.7841 10.8619Z" fill="#D16900"/>
<path d="M34.7841 13.7194H26.6243C26.3611 13.7194 26.1543 13.5126 26.1543 13.2493C26.1543 12.9861 26.3611 12.7793 26.6243 12.7793H34.7841C35.0474 12.7793 35.2542 12.9861 35.2542 13.2493C35.2542 13.5126 35.0474 13.7194 34.7841 13.7194Z" fill="#D16900"/>
<path d="M34.7841 16.5787H26.6243C26.3611 16.5787 26.1543 16.3719 26.1543 16.1087C26.1543 15.8455 26.3611 15.6387 26.6243 15.6387H34.7841C35.0474 15.6387 35.2542 15.8455 35.2542 16.1087C35.2542 16.3719 35.0474 16.5787 34.7841 16.5787Z" fill="#D16900"/>
<path d="M34.7841 19.4362H26.6243C26.3611 19.4362 26.1543 19.2293 26.1543 18.9661C26.1543 18.7029 26.3611 18.4961 26.6243 18.4961H34.7841C35.0474 18.4961 35.2542 18.7029 35.2542 18.9661C35.2542 19.2293 35.0474 19.4362 34.7841 19.4362Z" fill="#D16900"/>
<path d="M34.7841 22.2936H26.6243C26.3611 22.2936 26.1543 22.0868 26.1543 21.8236C26.1543 21.5603 26.3611 21.3535 26.6243 21.3535H34.7841C35.0474 21.3535 35.2542 21.5603 35.2542 21.8236C35.2542 22.0868 35.0474 22.2936 34.7841 22.2936Z" fill="#D16900"/>
<path d="M34.7841 25.151H26.6243C26.3611 25.151 26.1543 24.9442 26.1543 24.681C26.1543 24.4178 26.3611 24.2109 26.6243 24.2109H34.7841C35.0474 24.2109 35.2542 24.4178 35.2542 24.681C35.2542 24.9442 35.0474 25.151 34.7841 25.151Z" fill="#D16900"/>
</svg>
