<svg width="38" height="40" viewBox="0 0 38 40" fill="none" xmlns="http://www.w3.org/2000/svg">
<path d="M34.2 6.09099C34.994 6.09099 35.6364 5.44856 35.6364 4.65463C35.6364 3.86069 34.994 3.21826 34.2 3.21826C33.4061 3.21826 32.7637 3.86069 32.7637 4.65463C32.7637 5.44856 33.4122 6.09099 34.2 6.09099ZM34.2 4.2425C34.4303 4.2425 34.6182 4.43038 34.6182 4.66069C34.6182 4.89099 34.4303 5.07887 34.2 5.07887C33.9637 5.07887 33.7819 4.89705 33.7819 4.66069C33.7819 4.42432 33.9697 4.2425 34.2 4.2425Z" fill="#F2A700"/>
<path d="M35.7942 0.896973H6.26689C5.14568 0.896973 4.23053 1.81212 4.23053 2.93334V6.04243H2.20629C1.08507 6.04243 0.169922 6.95758 0.169922 8.07879V33.6121C0.169922 34.7333 1.08507 35.6485 2.20629 35.6485H15.7396V38.5939C15.7396 38.8727 15.9699 39.103 16.2487 39.103H25.8123C26.0911 39.103 26.3214 38.8727 26.3214 38.5939V35.6485H31.7336C32.8548 35.6485 33.7699 34.7333 33.7699 33.6121V30.503H35.7942C36.9154 30.503 37.8305 29.5879 37.8305 28.4667V2.93334C37.8305 1.81212 36.9154 0.896973 35.7942 0.896973ZM5.24871 2.93334C5.24871 2.3697 5.70932 1.91515 6.26689 1.91515H35.7942C36.3578 1.91515 36.8123 2.37576 36.8123 2.93334V7.4H17.4911L15.2184 5.04243C15.0426 4.86061 14.8002 4.75758 14.5517 4.75758H9.54568C9.03659 4.75758 8.61841 5.17576 8.61841 5.68485V7.4H5.24871V2.93334ZM2.20629 34.6364C1.64265 34.6364 1.1881 34.1758 1.1881 33.6182V8.07879C1.1881 7.51515 1.64871 7.06061 2.20629 7.06061H4.23053V28.4727C4.23053 29.5939 5.14568 30.5091 6.26689 30.5091H17.3214C17.5214 30.897 17.6123 31.3333 17.576 31.7818H16.7881C16.2063 31.7818 15.7396 32.2545 15.7396 32.8303V34.6364H2.20629ZM20.5275 23.9758C20.6305 23.7939 20.8184 23.6788 21.0305 23.6788C21.3457 23.6788 21.6002 23.9333 21.6002 24.2485C21.6002 24.4545 21.4911 24.6424 21.3154 24.7455C21.1214 24.8606 20.8911 24.8485 20.6548 24.7152C20.6245 24.697 20.5942 24.6727 20.582 24.6424C20.3881 24.3333 20.4669 24.0909 20.5275 23.9758ZM20.5214 22.7576C20.1517 22.8849 19.8366 23.1333 19.6427 23.4849C19.3517 24.0061 19.3881 24.6424 19.7275 25.1879C19.8366 25.3576 19.982 25.497 20.1578 25.6C20.4366 25.7576 20.7396 25.8424 21.0366 25.8424C21.3154 25.8424 21.5881 25.7697 21.8305 25.6303C22.3154 25.3455 22.6184 24.8182 22.6184 24.2545C22.6184 23.5576 22.1639 22.9697 21.5396 22.7576V20.1394L26.0426 28.2667C26.0366 28.2727 26.0305 28.2849 26.0123 28.2909C24.4184 28.703 23.376 30.1939 23.4608 31.7818H18.6063C18.6972 30.1879 17.6487 28.697 16.0245 28.2424L20.5214 20.1394V22.7576ZM25.3033 38.0849H16.7578L16.7881 32.7939H25.273C25.2911 32.7939 25.3033 32.8061 25.3033 32.8242V38.0849ZM32.7517 33.6121C32.7517 34.1758 32.2911 34.6303 31.7336 34.6303H26.3214V32.8242C26.3214 32.2424 25.8487 31.7758 25.273 31.7758H24.4851C24.4487 31.3273 24.5457 30.8909 24.7396 30.503H32.7517V33.6121ZM35.7942 29.4909H25.7275C25.8911 29.4 26.0669 29.3212 26.2608 29.2727C26.582 29.1879 26.8426 28.9636 26.976 28.6606C27.1033 28.3636 27.0851 28.0303 26.9275 27.7455L21.7154 18.3576C21.582 18.1091 21.3214 17.9515 21.0366 17.9515C20.7457 17.9576 20.4851 18.103 20.3457 18.3515L15.1275 27.7455C14.9699 28.0303 14.9578 28.3697 15.0851 28.6667C15.2123 28.9697 15.473 29.1879 15.7942 29.2727C15.9881 29.3212 16.1578 29.4 16.3275 29.4909H6.26689C5.70326 29.4909 5.24871 29.0303 5.24871 28.4727V8.41818H8.70326C9.21235 8.41818 9.63053 8 9.63053 7.49091V5.77576H14.5093L16.782 8.13334C16.9578 8.31516 17.2002 8.41818 17.4487 8.41818H36.8123V28.4667C36.8123 29.0303 36.3578 29.4909 35.7942 29.4909Z" fill="#F2A700"/>
<path d="M30.7337 6.09099C31.5277 6.09099 32.1701 5.44856 32.1701 4.65463C32.1701 3.86069 31.5277 3.21826 30.7337 3.21826C29.9398 3.21826 29.2974 3.86069 29.2974 4.65463C29.2974 5.44856 29.9398 6.09099 30.7337 6.09099ZM30.7337 4.2425C30.964 4.2425 31.1519 4.43038 31.1519 4.66069C31.1519 4.89099 30.964 5.07887 30.7337 5.07887C30.4974 5.07887 30.3155 4.89705 30.3155 4.66069C30.3155 4.42432 30.5034 4.2425 30.7337 4.2425Z" fill="#F2A700"/>
<path d="M27.2611 6.09099C28.055 6.09099 28.6974 5.44856 28.6974 4.65463C28.6974 3.86069 28.055 3.21826 27.2611 3.21826C26.4671 3.21826 25.8247 3.86069 25.8247 4.65463C25.8247 5.44856 26.4671 6.09099 27.2611 6.09099ZM27.2611 4.2425C27.4914 4.2425 27.6793 4.43038 27.6793 4.66069C27.6793 4.89099 27.4914 5.07887 27.2611 5.07887C27.0247 5.07887 26.8429 4.89705 26.8429 4.66069C26.8429 4.42432 27.0308 4.2425 27.2611 4.2425Z" fill="#F2A700"/>
<path d="M30.8424 12.8543C30.5455 13.1513 30.3576 13.527 30.2849 13.927H23.1636V13.127C23.1636 12.5816 22.7212 12.1392 22.1758 12.1392H19.8788C19.3333 12.1392 18.8909 12.5816 18.8909 13.127V13.927H11.7758C11.7091 13.5331 11.5212 13.1573 11.2182 12.8483C10.4485 12.0907 9.13333 12.1028 8.38181 12.8543C8 13.2361 7.79395 13.7392 7.79395 14.2725C7.79395 14.8119 8.00606 15.321 8.38181 15.6907C8.76363 16.0846 9.27272 16.2846 9.8 16.2846C10.1333 16.2846 10.4727 16.2058 10.7939 16.0422C11.1394 15.8664 11.4242 15.5755 11.5939 15.2179C11.6364 15.127 11.6727 15.0361 11.703 14.9452H16.6424C13.9576 16.2543 11.9333 18.7149 11.2303 21.6846H10.4424C9.89697 21.6846 9.45455 22.127 9.45455 22.6725V24.9695C9.45455 25.5149 9.89697 25.9573 10.4424 25.9573H12.7394C13.2849 25.9573 13.7273 25.5149 13.7273 24.9695V22.6725C13.7273 22.127 13.2849 21.6846 12.7394 21.6846H12.2788C13.1273 18.4846 15.6909 15.9755 18.9091 15.1998V15.4179C18.9091 15.9634 19.3515 16.4058 19.897 16.4058H22.1939C22.7394 16.4058 23.1818 15.9634 23.1818 15.4179V15.1998C26.3939 15.9755 28.9576 18.4846 29.8121 21.6846H29.3939C28.8485 21.6846 28.4061 22.127 28.4061 22.6725V24.9695C28.4061 25.5149 28.8485 25.9573 29.3939 25.9573H31.6909C32.2364 25.9573 32.6788 25.5149 32.6788 24.9695V22.6725C32.6788 22.127 32.2364 21.6846 31.6909 21.6846H30.8606C30.1515 18.7149 28.1273 16.2483 25.4485 14.9452H30.4C30.497 15.224 30.6546 15.4786 30.8667 15.6907C31.2485 16.0846 31.7576 16.2846 32.2849 16.2846C32.6182 16.2846 32.9576 16.2058 33.2788 16.0422C33.6242 15.8664 33.9091 15.5755 34.0788 15.2179C34.4727 14.3876 34.3333 13.4846 33.7091 12.8483C32.9152 12.0967 31.6 12.1028 30.8424 12.8543ZM10.6667 14.7876C10.5939 14.9331 10.4727 15.0604 10.3273 15.1331C9.80001 15.3998 9.34546 15.2301 9.09698 14.9695C8.9091 14.7876 8.80607 14.5392 8.80607 14.2725C8.80607 14.0119 8.9091 13.7634 9.09698 13.5695C9.28485 13.3816 9.53333 13.2786 9.8 13.2786C10.0606 13.2786 10.3152 13.3816 10.497 13.5634C10.8121 13.8907 10.8727 14.3452 10.6667 14.7876ZM12.7273 24.9392L10.4606 24.9695L10.4303 22.7028H12.697L12.7273 24.9392ZM31.6727 24.9392L29.4061 24.9695L29.3758 22.7028H31.6424L31.6727 24.9392ZM19.9152 15.424L19.903 14.6604C19.9152 14.6058 19.9152 14.5513 19.9091 14.4907V14.4846C19.9091 14.4664 19.9212 14.4543 19.9212 14.4361C19.9212 14.4058 19.9091 14.3816 19.903 14.3573L19.8849 13.1634H22.1515L22.1697 14.3573C22.1636 14.3876 22.1515 14.4119 22.1515 14.4422C22.1515 14.4604 22.1576 14.4725 22.1636 14.4907V14.4967C22.1515 14.5755 22.1576 14.6483 22.1758 14.7149L22.1879 15.3998L19.9152 15.424ZM33.1333 14.7876C33.0606 14.9331 32.9394 15.0604 32.7939 15.1331C32.2667 15.3998 31.8121 15.2301 31.5636 14.9695C31.3758 14.7876 31.2727 14.5392 31.2727 14.2725C31.2727 14.0119 31.3758 13.7634 31.5636 13.5695C31.7515 13.3816 32 13.2786 32.2667 13.2786C32.5273 13.2786 32.7818 13.3816 32.9636 13.5634C33.2788 13.8907 33.3394 14.3452 33.1333 14.7876Z" fill="#F2A700"/>
</svg>
