<svg width="40" height="40" viewBox="0 0 40 40" fill="none" xmlns="http://www.w3.org/2000/svg">
<path d="M36.0413 33.125H31.25C30.9864 32.2229 30.4375 31.4306 29.6856 30.8669C28.9336 30.3032 28.0192 29.9985 27.0794 29.9985C26.1396 29.9985 25.2252 30.3032 24.4732 30.8669C23.7212 31.4306 23.1723 32.2229 22.9087 33.125H2.5C2.16848 33.125 1.85054 33.2567 1.61612 33.4911C1.3817 33.7255 1.25 34.0434 1.25 34.375C1.25 34.7065 1.3817 35.0244 1.61612 35.2589C1.85054 35.4933 2.16848 35.625 2.5 35.625H22.9125C23.1771 36.5255 23.7263 37.3162 24.4777 37.8786C25.2292 38.441 26.1426 38.745 27.0813 38.745C28.0199 38.745 28.9333 38.441 29.6848 37.8786C30.4362 37.3162 30.9854 36.5255 31.25 35.625H36.0375C36.369 35.625 36.687 35.4933 36.9214 35.2589C37.1558 35.0244 37.2875 34.7065 37.2875 34.375C37.2875 34.0434 37.1558 33.7255 36.9214 33.4911C36.687 33.2567 36.369 33.125 36.0375 33.125H36.0413ZM27.0837 36.25C26.7129 36.25 26.3504 36.14 26.0421 35.934C25.7337 35.7279 25.4934 35.4351 25.3515 35.0925C25.2096 34.7499 25.1724 34.3729 25.2448 34.0092C25.3171 33.6455 25.4957 33.3114 25.7579 33.0491C26.0201 32.7869 26.3542 32.6083 26.718 32.536C27.0817 32.4636 27.4587 32.5008 27.8013 32.6427C28.1439 32.7846 28.4367 33.0249 28.6428 33.3333C28.8488 33.6416 28.9587 34.0041 28.9587 34.375C28.9587 34.8722 28.7612 35.3492 28.4096 35.7008C28.0579 36.0524 27.581 36.25 27.0837 36.25Z" fill="#00A9ED"/>
<path d="M34.825 1.25H5.175C4.13433 1.25099 3.13657 1.66484 2.4007 2.4007C1.66484 3.13657 1.25099 4.13433 1.25 5.175V24.825C1.25099 25.8657 1.66484 26.8634 2.4007 27.5993C3.13657 28.3352 4.13433 28.749 5.175 28.75H34.825C35.8657 28.749 36.8634 28.3352 37.5993 27.5993C38.3352 26.8634 38.749 25.8657 38.75 24.825V5.175C38.749 4.13433 38.3352 3.13657 37.5993 2.4007C36.8634 1.66484 35.8657 1.25099 34.825 1.25ZM36.25 24.825C36.2497 25.2028 36.0994 25.5651 35.8323 25.8323C35.5651 26.0994 35.2028 26.2497 34.825 26.25H5.175C4.79717 26.2497 4.43491 26.0994 4.16774 25.8323C3.90057 25.5651 3.75033 25.2028 3.75 24.825V5.175C3.75033 4.79717 3.90057 4.43491 4.16774 4.16774C4.43491 3.90057 4.79717 3.75033 5.175 3.75H34.825C35.2028 3.75033 35.5651 3.90057 35.8323 4.16774C36.0994 4.43491 36.2497 4.79717 36.25 5.175V24.825Z" fill="#00A9ED"/>
<path d="M26.9125 13.94L16.9125 7.69C16.7233 7.57174 16.5059 7.50629 16.2828 7.50043C16.0598 7.49457 15.8392 7.54853 15.644 7.6567C15.4489 7.76486 15.2862 7.9233 15.173 8.11555C15.0597 8.30781 15 8.52687 15 8.75V21.25C15 21.4731 15.0597 21.6922 15.173 21.8845C15.2862 22.0767 15.4489 22.2351 15.644 22.3433C15.8392 22.4515 16.0598 22.5054 16.2828 22.4996C16.5059 22.4937 16.7233 22.4283 16.9125 22.31L26.9125 16.06C27.0934 15.9479 27.2427 15.7915 27.3462 15.6055C27.4497 15.4196 27.504 15.2103 27.504 14.9975C27.504 14.7847 27.4497 14.5754 27.3462 14.3895C27.2427 14.2035 27.0934 14.0471 26.9125 13.935V13.94ZM17.5 19V11L23.8913 15L17.5 19Z" fill="#00A9ED"/>
</svg>
