<svg width="13" height="10" viewBox="0 0 13 10" fill="none" xmlns="http://www.w3.org/2000/svg">
<path d="M8.51017 4.34197L5.63818 2.77054C5.47304 2.68019 5.27785 2.68356 5.11599 2.77947C4.95402 2.87547 4.85742 3.04507 4.85742 3.23332V6.3492C4.85742 6.53656 4.95343 6.70586 5.1143 6.80196C5.19831 6.85215 5.29144 6.87734 5.38477 6.87734C5.47026 6.87734 5.55596 6.85622 5.63481 6.81377L8.5069 5.26941C8.67739 5.17767 8.78381 5.00043 8.78461 4.80673C8.7853 4.61303 8.68017 4.435 8.51017 4.34197ZM5.61923 5.95724V3.62846L7.76572 4.80296L5.61923 5.95724Z" fill="#17254E"/>
<path d="M12.9136 2.32392L12.913 2.31797C12.902 2.21333 12.7924 1.28261 12.3399 0.809221C11.8169 0.252417 11.224 0.184775 10.9389 0.152343C10.9153 0.149665 10.8936 0.147185 10.8743 0.144606L10.8516 0.142226C9.13297 0.0172576 6.53749 0.000198363 6.51151 9.91814e-05L6.50923 0L6.50695 9.91814e-05C6.48096 0.000198363 3.88548 0.0172576 2.1514 0.142226L2.12849 0.144606C2.11004 0.147086 2.08971 0.149367 2.06759 0.151946C1.78571 0.184477 1.19916 0.252218 0.674685 0.829156C0.243742 1.29749 0.11917 2.20827 0.106376 2.31063L0.104888 2.32392C0.10102 2.36746 0.00927734 3.404 0.00927734 4.44461V5.41739C0.00927734 6.458 0.10102 7.49454 0.104888 7.53818L0.105582 7.54473C0.116592 7.64768 0.226088 8.56134 0.67647 9.03493C1.16821 9.57308 1.78998 9.6443 2.12442 9.68258C2.17728 9.68863 2.22281 9.69379 2.25385 9.69924L2.2839 9.70341C3.27621 9.79783 6.38743 9.84435 6.51934 9.84623L6.52331 9.84633L6.52728 9.84623C6.55326 9.84613 9.14864 9.82907 10.8673 9.7041L10.89 9.70172C10.9117 9.69885 10.9361 9.69627 10.9629 9.69349C11.2432 9.66374 11.8265 9.60195 12.3438 9.03284C12.7747 8.56441 12.8994 7.65363 12.9121 7.55137L12.9136 7.53808C12.9174 7.49444 13.0093 6.458 13.0093 5.41739V4.44461C13.0092 3.404 12.9174 2.36756 12.9136 2.32392ZM12.2474 5.41739C12.2474 6.38054 12.1633 7.37245 12.1553 7.4635C12.123 7.71433 11.9916 8.29057 11.7816 8.51879C11.4579 8.87495 11.1253 8.91026 10.8825 8.93594C10.8532 8.93902 10.826 8.94199 10.8014 8.94507C9.13912 9.06528 6.64163 9.08372 6.52658 9.08442C6.39755 9.08253 3.33185 9.03562 2.36979 8.94626C2.3205 8.93822 2.26724 8.93208 2.2111 8.92573C1.92635 8.8931 1.53657 8.84847 1.23685 8.51879L1.2298 8.51125C1.02351 8.29632 0.89586 7.75747 0.863427 7.46647C0.857377 7.39764 0.771089 6.39402 0.771089 5.41739V4.44461C0.771089 3.48256 0.854997 2.49173 0.86313 2.3988C0.901711 2.10334 1.03561 1.56201 1.23685 1.34321C1.57049 0.976242 1.92229 0.935578 2.15497 0.9087C2.17718 0.906121 2.19791 0.903741 2.21705 0.901261C3.90353 0.780458 6.41897 0.762506 6.50923 0.761812C6.59948 0.762407 9.11403 0.780458 10.7855 0.901261C10.8061 0.90384 10.8285 0.906419 10.8526 0.909196C11.0919 0.936471 11.4536 0.97773 11.7856 1.33181L11.7887 1.33508C11.9949 1.55001 12.1226 2.09828 12.155 2.39513C12.1608 2.46009 12.2474 3.46589 12.2474 4.44461V5.41739Z" fill="#17254E"/>
</svg>
